<svg t="1624418699596" class="icon" viewBox="0 0 1024 1024" version="1.1" xmlns="http://www.w3.org/2000/svg" p-id="2588" width="200" height="200"><path d="M654.933333 360.533333c-14.933333-8.533333-34.133333-2.133333-42.666666 12.8-8.533333 14.933333-2.133333 34.133333 12.8 42.666667 0 0 55.466667 29.866667 76.8 89.6 4.266667 12.8 17.066667 21.333333 29.866666 21.333333 4.266667 0 6.4 0 10.666667-2.133333 17.066667-6.4 25.6-23.466667 19.2-40.533333-29.866667-83.2-104.533333-121.6-106.666667-123.733334z" p-id="2589" fill="#cdcdcd"></path><path d="M541.866667 138.666667C324.266667 138.666667 147.2 315.733333 147.2 533.333333c0 61.866667 14.933333 119.466667 38.4 170.666667v145.066667c0 21.333333 17.066667 38.4 38.4 38.4h145.066667c51.2 25.6 108.8 38.4 170.666666 38.4 217.6 0 394.666667-177.066667 394.666667-394.666667 2.133333-215.466667-174.933333-392.533333-392.533333-392.533333z m0 729.6c-51.2 0-100.266667-10.666667-145.066667-34.133334l-12.8-6.4h-138.666667V691.2l-6.4-12.8c-21.333333-46.933333-34.133333-96-34.133333-145.066667 0-185.6 151.466667-334.933333 334.933333-334.933333s337.066667 149.333333 337.066667 334.933333c0 183.466667-151.466667 334.933333-334.933333 334.933334z" p-id="2590" fill="#cdcdcd"></path></svg>